<!--?xml version="1.0" encoding="utf-8"?-->
<!-- Svg Vector Icons : http://www.onlinewebfonts.com/icon -->

<svg version="1.1" xmlns="http://www.w3.org/2000/svg" xmlns:xlink="http://www.w3.org/1999/xlink" x="0px" y="0px" viewBox="0 0 256 256" enable-background="new 0 0 256 256" xml:space="preserve">
<metadata> Svg Vector Icons : http://www.onlinewebfonts.com/icon </metadata>
<g><g><g><path fill="#e93728" data-title="Layer 0" xs="0" d="M48.1,10.8C33,12.6,20.2,20.4,14.9,30.8C8.5,43.7,8.3,63.3,14.7,88c2.5,9.9,5.9,20.1,9.7,29.3l2.4,5.9l60,60.1c33,33.1,60.9,60.7,62,61.2c2.7,1.5,9.6,1.4,13-0.1c3.1-1.5,81-79,82.7-82.3c1.5-3.1,2-8.1,1-11.7c-0.8-2.9-4.4-6.8-60.2-62.6l-59.3-59.5l-5.9-2.9C108.9,20,89.2,14,75.4,11.7C67.6,10.5,54.3,10,48.1,10.8z M53.1,32.3c8.7,5,10,17.4,2.7,23.8c-3.5,3.1-7.6,4.4-11.7,4c-12-1.4-17.6-15.5-9.8-24.6C39,29.9,46.8,28.6,53.1,32.3z M119.2,67.2c5.7,5.7,10.3,10.6,10.3,10.9c0,0.3-1.6,2.2-3.4,4l-3.4,3.5L116,79l-6.7-6.7l-7.6,7.7L94,87.6l5.2,5.2l5.2,5.2l-3.8,3.7l-3.7,3.8l-5.2-5.2l-5.2-5.2l-10.6,10.6l-10.6,10.6l-3.8-3.8c-2-2.1-3.7-4-3.7-4.4c0-0.7,50.2-51.1,50.8-51.1C108.9,57,113.6,61.6,119.2,67.2z M141.8,89.9c13.5,13.8,13.7,18.6,1.2,30.7c-6,5.8-9.9,7.9-13.9,7.2l-2.3-0.4v3.6c0,5.1-1.6,7.7-10.4,16.7c-4.2,4.4-7.9,8.5-8.3,9.1c-0.5,1-1.2,0.6-4.8-3l-4.2-4.2l1.1-1.7c0.7-0.9,4.2-4.8,7.8-8.7c3.7-3.8,7-7.6,7.5-8.4c1.4-2.6,0.8-4.7-1.9-7.6l-2.5-2.7L100.9,131l-10.4,10.4l-4-4.1l-4.1-4l25.4-25.4c13.9-14,25.7-25.4,26.1-25.4C134.2,82.4,137.8,85.8,141.8,89.9z M174.5,122.5l10.8,10.8l-3.8,3.7l-3.7,3.8l-7-7l-7-7l-7,7l-7,7l5.5,5.5l5.5,5.5l-3.7,3.8l-3.7,3.8l-5.6-5.5l-5.5-5.5l-7.5,7.5l-7.5,7.5l7,7l7,7l-3.5,3.4c-1.9,1.8-3.7,3.4-4,3.4c-0.4,0-5.5-4.8-11.4-10.8l-10.8-10.8l25.4-25.4c13.9-14,25.7-25.4,26.1-25.4S168.5,116.6,174.5,122.5z M201.2,149.2l10.8,10.8l-3.8,3.7l-3.7,3.8l-6.8-6.8l-6.8-6.8l-7,7l-7,7l5.5,5.5l5.5,5.5l-3.8,3.7l-3.7,3.8l-5.5-5.5l-5.5-5.5l-7.5,7.5l-7.5,7.5l6.8,6.8l6.8,6.8l-3.7,3.8l-3.8,3.7l-10.9-10.9l-10.9-10.9l25.5-25.5c14.1-14.1,25.7-25.6,25.9-25.6S195.3,143.3,201.2,149.2z"/><path fill="#38cc7e" data-title="Layer 1" xs="1" d="M126.3,105.5l-7.4,7.5l2.2,2.3c4.6,4.8,7,4.3,14.2-3.2c5.9-6.1,6.1-7.7,2-11.5c-1.6-1.4-2.9-2.6-3.1-2.6C133.9,98.1,130.4,101.4,126.3,105.5z"/></g></g></g>
</svg>